# Blender v2.79 (sub 0) OBJ File: 'spanner.blend'
# www.blender.org
mtllib spanner.mtl
o Cube
v 1.102928 -0.122511 0.838811
v 0.936924 -0.122511 -0.216563
v 0.936924 0.697256 -0.216563
v 1.102928 0.697255 0.838812
v -0.405832 -0.122512 1.076129
v -0.571835 -0.122511 0.020755
v -0.571835 0.697256 0.020756
v -0.405832 0.697255 1.076130
v -0.980195 -0.122512 1.549811
v -1.263880 -0.122511 -0.253730
v -0.980195 0.697255 1.549812
v -1.263880 0.697256 -0.253729
v -1.606284 -0.122512 1.648291
v -1.889970 -0.122511 -0.155251
v -1.606284 0.697255 1.648292
v -1.889969 0.697256 -0.155249
v -2.197960 -0.122512 1.035802
v -2.265046 -0.122511 0.609304
v -2.197960 0.697255 1.035802
v -2.265046 0.697256 0.609304
v -1.719165 -0.122512 0.930646
v -1.777088 -0.122511 0.562396
v -1.719165 0.697255 0.930646
v -1.777089 0.697256 0.562396
v -1.302202 -0.122512 1.217616
v -1.468357 -0.122511 0.161278
v -1.302202 0.697255 1.217617
v -1.468357 0.697256 0.161279
v -0.858673 -0.122512 0.978216
v -0.972752 -0.122511 0.252958
v -0.858673 0.697255 0.978217
v -0.972752 0.697256 0.252959
v 0.941500 -0.122511 0.864203
v 0.775496 -0.122511 -0.191171
v 0.775496 0.697256 -0.191171
v 0.941500 0.697255 0.864203
v 1.801387 -0.122512 0.728948
v 1.635384 -0.122511 -0.326427
v 1.635384 0.697256 -0.326426
v 1.801387 0.697255 0.728948
v 2.493432 -0.122512 1.003432
v 2.209747 -0.122511 -0.800110
v 2.493432 0.697255 1.003433
v 2.209747 0.697256 -0.800108
v 3.119521 -0.122512 0.904952
v 2.835836 -0.122511 -0.898589
v 3.119521 0.697255 0.904953
v 2.835836 0.697256 -0.898588
v 3.494597 -0.122512 0.140399
v 3.427512 -0.122511 -0.286099
v 3.494597 0.697255 0.140399
v 3.427512 0.697256 -0.286099
v 3.006640 -0.122512 0.187307
v 2.948717 -0.122511 -0.180943
v 3.006640 0.697255 0.187307
v 2.948717 0.697256 -0.180943
v 2.697909 -0.122512 0.588424
v 2.531754 -0.122511 -0.467914
v 2.697909 0.697256 0.588425
v 2.531754 0.697256 -0.467913
v 2.202304 -0.122512 0.496744
v 2.088225 -0.122511 -0.228514
v 2.202304 0.697255 0.496745
v 2.088226 0.697256 -0.228513
vn 0.0000 -1.0000 0.0000
vn -0.1554 0.0000 -0.9879
vn 0.0000 1.0000 0.0000
vn 0.1554 -0.0000 0.9879
vn 0.6362 -0.0000 0.7715
vn 0.3687 0.0000 -0.9296
vn -0.8978 0.0000 -0.4404
vn -0.7192 -0.0000 0.6948
vn 0.5669 0.0000 -0.8238
vn -0.2145 0.0000 -0.9767
vn 0.0957 -0.0000 0.9954
vn -0.1819 -0.0000 0.9833
vn 0.7925 -0.0000 0.6099
vn -0.9879 0.0000 0.1554
vn -0.4750 0.0000 -0.8800
vn -0.3687 -0.0000 0.9296
vn -0.6362 0.0000 -0.7715
vn 0.7192 0.0000 -0.6948
vn 0.8978 -0.0000 0.4404
vn -0.7925 0.0000 -0.6099
vn -0.0957 0.0000 -0.9954
vn 0.2145 -0.0000 0.9767
vn 0.4750 -0.0000 0.8800
vn -0.5669 -0.0000 0.8238
vn 0.9879 0.0000 -0.1554
vn 0.1819 0.0000 -0.9833
usemtl Material
s off
f 22//1 18//1 14//1
f 1//1 5//1 6//1 2//1
f 2//2 6//2 7//2 3//2
f 3//3 7//3 8//3 4//3
f 5//4 1//4 4//4 8//4
f 13//1 21//1 25//1 9//1
f 5//5 8//5 11//5 9//5
f 7//6 6//6 10//6 12//6
f 10//1 26//1 22//1 14//1
f 16//7 14//7 18//7 20//7
f 9//4 11//4 15//4 13//4
f 12//2 10//2 14//2 16//2
f 8//3 7//3 32//3 31//3
f 6//1 5//1 29//1 30//1
f 16//3 20//3 24//3
f 5//1 9//1 25//1 29//1
f 13//8 15//8 19//8 17//8
f 21//9 23//9 27//9 25//9
f 17//10 19//10 23//10 21//10
f 20//11 18//11 22//11 24//11
f 15//3 23//3 19//3
f 28//12 26//12 30//12 32//12
f 24//13 22//13 26//13 28//13
f 27//3 23//3 15//3 11//3
f 17//1 21//1 13//1
f 29//14 31//14 32//14 30//14
f 27//3 11//3 8//3 31//3
f 6//1 30//1 26//1 10//1
f 25//15 27//15 31//15 29//15
f 16//3 24//3 28//3 12//3
f 12//3 28//3 32//3 7//3
f 54//1 46//1 50//1
f 33//1 34//1 38//1 37//1
f 34//2 35//2 39//2 38//2
f 35//3 36//3 40//3 39//3
f 37//4 40//4 36//4 33//4
f 45//1 41//1 57//1 53//1
f 37//16 41//16 43//16 40//16
f 39//17 44//17 42//17 38//17
f 42//1 46//1 54//1 58//1
f 48//18 52//18 50//18 46//18
f 41//4 45//4 47//4 43//4
f 44//2 48//2 46//2 42//2
f 40//3 63//3 64//3 39//3
f 38//1 62//1 61//1 37//1
f 48//3 56//3 52//3
f 37//1 61//1 57//1 41//1
f 45//19 49//19 51//19 47//19
f 53//20 57//20 59//20 55//20
f 49//21 53//21 55//21 51//21
f 52//22 56//22 54//22 50//22
f 47//3 51//3 55//3
f 60//23 64//23 62//23 58//23
f 56//24 60//24 58//24 54//24
f 59//3 43//3 47//3 55//3
f 49//1 45//1 53//1
f 61//25 62//25 64//25 63//25
f 59//3 63//3 40//3 43//3
f 38//1 42//1 58//1 62//1
f 57//26 61//26 63//26 59//26
f 48//3 44//3 60//3 56//3
f 44//3 39//3 64//3 60//3
